<svg width="169" height="61" viewBox="0 0 169 61" fill="none" xmlns="http://www.w3.org/2000/svg">
<g id="&#208;&#187;&#208;&#190;&#208;&#179;&#208;&#190;&#209;&#130;&#208;&#184;&#208;&#191;" clip-path="url(#clip0_124_4463)">
<g id="&#208;&#161;&#208;&#187;&#208;&#190;&#208;&#185; 2">
<g id="Layer 1">
<path id="Vector" d="M77.4354 18.0635C77.4406 18.1069 77.4361 18.151 77.4222 18.1926C77.4082 18.2342 77.3852 18.2723 77.3547 18.3041C77.2721 18.3041 77.1914 18.3837 77.1107 18.3837H75.8082C75.7641 18.3888 75.7194 18.3844 75.6773 18.3706C75.6351 18.3569 75.5965 18.3342 75.5642 18.3041C75.4836 18.2226 75.4836 18.2226 75.4836 18.0635V9.08025H70.6041V18.0635C70.6094 18.1069 70.6049 18.151 70.5909 18.1926C70.577 18.2342 70.554 18.2723 70.5235 18.3041C70.4428 18.3041 70.3602 18.3837 70.2795 18.3837H68.979C68.9348 18.3891 68.8901 18.3848 68.8479 18.371C68.8057 18.3573 68.7671 18.3344 68.735 18.3041C68.6523 18.2226 68.6523 18.2226 68.6523 18.0635V8.4379C68.6523 8.03812 68.735 7.79749 68.8963 7.63641C68.9956 7.54973 69.1116 7.48372 69.2374 7.44237C69.3631 7.40102 69.4961 7.38517 69.6282 7.39577H76.3788C77.0281 7.39577 77.3626 7.71598 77.3626 8.4379V18.0635H77.4354Z" fill="white"/>
<path id="Vector_2" d="M85.6466 15.8977H81.6624L80.9305 17.9819C80.9305 18.0634 80.8498 18.143 80.7692 18.2225C80.7373 18.2533 80.6988 18.2766 80.6566 18.2907C80.6144 18.3048 80.5695 18.3094 80.5252 18.304H79.0614C79.0171 18.3097 78.9721 18.3053 78.9298 18.2911C78.8875 18.277 78.8491 18.2535 78.8174 18.2225V17.9819L82.2409 8.11764C82.3215 7.95657 82.3215 7.877 82.4022 7.71593C82.4848 7.63636 82.4848 7.5568 82.5655 7.47529C82.5976 7.44498 82.6362 7.42211 82.6784 7.40834C82.7206 7.39458 82.7654 7.39027 82.8095 7.39572H83.866C84.1195 7.39182 84.3703 7.44701 84.598 7.5568C84.7613 7.63636 84.8419 7.877 84.9226 8.11764L88.3402 17.9819V18.2225C88.3402 18.304 88.2595 18.304 88.0962 18.304H86.3727C86.292 18.304 86.2113 18.2225 86.2113 18.0634L85.6466 15.8977ZM82.1504 14.2927H85.1587L84.3461 11.6438L83.6949 9.47803H83.6181L82.963 11.6438L82.1504 14.2927Z" fill="white"/>
<path id="Vector_3" d="M107.198 8.99871C107.198 9.08022 107.116 9.08022 106.954 9.08022H104.027V17.9819C104.027 18.143 104.027 18.2226 103.946 18.2226C103.865 18.2226 103.783 18.3041 103.619 18.3041H102.399C102.238 18.3041 102.155 18.3041 102.155 18.2226C102.125 18.1909 102.102 18.1528 102.088 18.1112C102.074 18.0696 102.069 18.0254 102.075 17.9819V9.08022H99.1471C99.1028 9.08571 99.0579 9.08122 99.0156 9.06711C98.9734 9.05299 98.9349 9.0296 98.9031 8.99871C98.8224 8.91915 98.8224 8.91915 98.8224 8.75808V7.71595C98.8172 7.67246 98.8217 7.62836 98.8356 7.58678C98.8496 7.5452 98.8726 7.50714 98.9031 7.47531C98.9838 7.39575 98.9838 7.39575 99.1471 7.39575H107.033C107.077 7.39043 107.122 7.39481 107.164 7.40856C107.206 7.42232 107.245 7.44512 107.277 7.47531C107.277 7.55682 107.358 7.55682 107.358 7.71595V8.75808C107.279 8.83958 107.279 8.92691 107.198 8.99871Z" fill="white"/>
<path id="Vector_4" d="M117.363 18.2226C117.282 18.2226 117.2 18.3041 117.038 18.3041H115.818C115.655 18.3041 115.574 18.3041 115.574 18.2226C115.543 18.1913 115.519 18.1534 115.505 18.1117C115.49 18.07 115.486 18.0256 115.492 17.9819V13.4117H110.614V17.9819C110.614 18.143 110.614 18.2226 110.532 18.2226C110.449 18.2226 110.37 18.3041 110.207 18.3041H108.987C108.906 18.3041 108.743 18.3041 108.743 18.2226C108.712 18.1909 108.689 18.1528 108.675 18.1112C108.661 18.0696 108.657 18.0254 108.662 17.9819V7.71596C108.662 7.55682 108.662 7.47532 108.743 7.47532C108.824 7.47532 108.906 7.39575 108.987 7.39575H110.207C110.37 7.39575 110.451 7.39575 110.532 7.47532C110.614 7.47532 110.614 7.63639 110.614 7.71596V11.7273H115.494V7.71596C115.494 7.55682 115.494 7.47532 115.576 7.47532C115.659 7.47532 115.738 7.39575 115.82 7.39575H117.04C117.201 7.39575 117.284 7.39575 117.365 7.47532C117.445 7.47532 117.445 7.63639 117.445 7.71596V17.9819C117.443 18.143 117.443 18.2226 117.363 18.2226Z" fill="white"/>
<path id="Vector_5" d="M126.958 18.2225C126.926 18.2534 126.888 18.2768 126.846 18.2909C126.803 18.305 126.759 18.3095 126.714 18.304H122.242C121.771 18.3227 121.301 18.2406 120.865 18.0634C120.536 17.8954 120.234 17.6788 119.972 17.421C119.732 17.1752 119.563 16.8702 119.484 16.538C119.383 16.1993 119.328 15.8489 119.32 15.4959V10.2019C119.328 9.84891 119.383 9.4985 119.484 9.15974C119.564 8.82832 119.732 8.52408 119.972 8.27869C120.218 8.00291 120.523 7.78368 120.865 7.63634C121.276 7.46437 121.721 7.38228 122.167 7.3957H126.551C126.714 7.3957 126.795 7.3957 126.795 7.47527C126.795 7.55484 126.878 7.63634 126.878 7.71591V8.68623C126.878 8.8473 126.878 8.92686 126.795 8.92686C126.795 9.00643 126.634 9.00643 126.551 9.00643H122.323C121.917 9.00643 121.673 9.08794 121.51 9.24707C121.347 9.4062 121.266 9.64878 121.266 10.0505V11.6438H126.063C126.226 11.6438 126.307 11.6438 126.307 11.7253C126.307 11.8068 126.39 11.8844 126.39 12.0455V12.9285C126.39 13.0876 126.39 13.1691 126.307 13.1691C126.307 13.2487 126.146 13.2487 126.063 13.2487H121.266V15.4959C121.255 15.6263 121.272 15.7574 121.313 15.8814C121.355 16.0055 121.422 16.1199 121.51 16.2178C121.743 16.392 122.031 16.4774 122.323 16.4585H126.634C126.795 16.4585 126.878 16.4585 126.878 16.538C126.878 16.6176 126.958 16.6991 126.958 16.8602V17.8305C127.001 17.9578 127.001 18.0952 126.958 18.2225Z" fill="white"/>
<path id="Vector_6" d="M74.6692 29.2123C74.9076 29.2687 75.1298 29.3783 75.3185 29.5325C75.4925 29.6226 75.6345 29.7627 75.7258 29.9343C75.8065 30.0934 75.9698 30.2545 75.9698 30.4951C76.0712 30.6948 76.127 30.9141 76.1331 31.1374L77.1168 34.7451V34.9062C77.1168 34.9857 77.0342 34.9857 76.8729 34.9857H75.409C75.3264 34.9857 75.3264 34.9062 75.2457 34.8266L74.262 31.3781C74.1006 30.8153 73.8567 30.4078 73.5301 30.2545C73.1218 30.0743 72.6762 29.9919 72.2295 30.0138H70.4351V34.7373C70.4409 34.781 70.4364 34.8254 70.4221 34.8671C70.4077 34.9088 70.3839 34.9467 70.3525 34.978H68.4834C68.4007 34.978 68.4007 34.8984 68.4007 34.7373V24.318C68.3952 24.2747 68.3997 24.2306 68.4141 24.1893C68.4284 24.1479 68.4521 24.1103 68.4834 24.0793H70.3525C70.4351 24.0793 70.4351 24.1589 70.3525 24.318V28.3332H72.5483C72.7454 28.3074 72.9377 28.2531 73.1188 28.1722C73.3199 28.0547 73.4877 27.8892 73.6068 27.6909C73.7681 27.5317 73.8508 27.2096 73.9314 26.8894L74.6633 24.2424C74.6662 24.2007 74.6843 24.1616 74.7144 24.1323C74.7445 24.1029 74.7844 24.0855 74.8266 24.0832H76.2885C76.4518 24.0832 76.5325 24.0832 76.5325 24.1628V24.3219L75.8006 27.13C75.7235 27.5353 75.5569 27.919 75.3126 28.2537C75.2815 28.4519 75.2074 28.6412 75.0953 28.8087C74.9833 28.9761 74.8359 29.1178 74.6633 29.224L74.6692 29.2123Z" fill="white"/>
<path id="Vector_7" d="M93.7811 32.6609H89.7968L89.0649 34.7374C89.0649 34.8189 88.9842 34.8985 88.9036 34.978C88.8717 35.0088 88.8332 35.0321 88.791 35.0462C88.7488 35.0603 88.7038 35.0649 88.6596 35.0595H87.1957C87.1515 35.0652 87.1065 35.0607 87.0642 35.0466C87.0219 35.0325 86.9835 35.009 86.9518 34.978C86.8691 34.8985 86.9518 34.8189 86.9518 34.7374L90.3674 24.8731C90.4481 24.7121 90.4481 24.6325 90.5287 24.4714C90.6094 24.3919 90.6094 24.3104 90.692 24.2308C90.7242 24.2005 90.7627 24.1776 90.8049 24.1638C90.8471 24.1501 90.8919 24.1458 90.936 24.1512H91.9926C92.2457 24.1478 92.4963 24.2023 92.7245 24.3103C92.8878 24.3919 92.9685 24.6325 93.0491 24.8731L96.4648 34.7374V34.978C96.4648 35.0595 96.3841 35.0595 96.2208 35.0595H94.513C94.4323 35.0595 94.3516 34.978 94.3516 34.8189L93.7811 32.6609ZM90.2041 31.0502H93.2124L92.3999 28.4031L91.7486 26.1578H91.6679L91.0167 28.3333L90.2041 31.0502Z" fill="white"/>
<path id="Vector_8" d="M102.808 33.4623C103.246 33.454 103.682 33.4 104.108 33.3013C104.504 33.2167 104.887 33.0823 105.247 32.9015C105.411 32.82 105.491 32.82 105.572 32.9015L105.735 33.0606L106.143 33.9436C106.199 34.041 106.227 34.1518 106.223 34.2638C106.223 34.3453 106.143 34.3453 106.06 34.4249C105.52 34.708 104.946 34.9238 104.352 35.0672C103.76 35.1562 103.163 35.2093 102.564 35.2264C100.937 35.2264 99.7167 34.7451 98.9041 33.8679C98.0915 32.9908 97.6843 31.5392 97.6843 29.7771C97.6551 28.988 97.7656 28.1999 98.0109 27.4483C98.2366 26.7877 98.5651 26.1657 98.9848 25.6047C99.4065 25.1186 99.9356 24.7342 100.531 24.4811C101.178 24.2254 101.867 24.0899 102.564 24.0813C103.055 24.0949 103.545 24.1482 104.028 24.2404C104.573 24.3323 105.096 24.5224 105.572 24.8013C105.655 24.8828 105.735 24.8828 105.735 24.9623C105.739 25.0744 105.711 25.1852 105.655 25.2826L105.247 26.1655C105.167 26.2451 105.167 26.3266 105.084 26.4062H104.84C104.501 26.2625 104.146 26.1552 103.784 26.086C103.408 26.0153 103.026 25.9879 102.644 26.0045C102.164 25.9875 101.688 26.0988 101.267 26.3266C100.867 26.5308 100.528 26.8345 100.283 27.2077C100.045 27.6135 99.8537 28.0444 99.7128 28.4924C99.615 28.9947 99.561 29.5044 99.5514 30.0158C99.5562 30.5012 99.6102 30.9848 99.7128 31.4596C99.7755 31.8934 99.9428 32.306 100.201 32.6628C100.45 33.0123 100.789 33.2892 101.184 33.4643C101.751 33.3789 102.239 33.4623 102.808 33.4623Z" fill="white"/>
<path id="Vector_9" d="M116.476 34.9858C116.395 34.9858 116.315 35.0673 116.151 35.0673H114.932C114.768 35.0673 114.688 35.0673 114.688 34.9858C114.657 34.9541 114.634 34.9161 114.62 34.8745C114.606 34.8328 114.601 34.7887 114.607 34.7452V30.175H109.728V34.7374C109.728 34.8985 109.728 34.9781 109.647 34.9781C109.566 34.9781 109.484 35.0596 109.32 35.0596H108.1C108.02 35.0596 107.856 35.0596 107.856 34.9781C107.826 34.9464 107.803 34.9083 107.789 34.8667C107.775 34.8251 107.77 34.7809 107.776 34.7374V24.4715C107.776 24.3104 107.776 24.2308 107.856 24.2308C107.937 24.2308 108.02 24.1512 108.1 24.1512H109.32C109.484 24.1512 109.564 24.1512 109.647 24.2308C109.728 24.2308 109.728 24.3919 109.728 24.4715V28.4827H114.607V24.4792C114.607 24.3181 114.607 24.2386 114.688 24.2386C114.72 24.2084 114.758 24.1856 114.801 24.1718C114.843 24.1581 114.887 24.1537 114.932 24.159H116.151C116.315 24.159 116.395 24.159 116.476 24.2386C116.559 24.2386 116.559 24.3996 116.559 24.4792V34.7374C116.549 34.9062 116.549 34.9858 116.476 34.9858Z" fill="white"/>
<path id="Vector_10" d="M128.261 29.5327C128.261 31.3782 127.856 32.7406 127.041 33.7031C126.227 34.6657 125.009 35.1469 123.382 35.1469C121.755 35.1469 120.618 34.6657 119.805 33.7031C118.992 32.7406 118.585 31.3743 118.585 29.5327C118.562 28.7186 118.671 27.9061 118.91 27.1263C119.121 26.4818 119.455 25.8831 119.893 25.3623C120.299 24.8589 120.832 24.471 121.44 24.2386C122.055 23.9752 122.719 23.8391 123.39 23.8389C124.114 23.8398 124.832 23.9754 125.505 24.2386C126.1 24.4919 126.628 24.8763 127.049 25.3623C127.49 25.8691 127.797 26.4749 127.945 27.1263C128.13 27.9162 128.236 28.7222 128.261 29.5327ZM126.229 29.6123C126.242 29.1032 126.215 28.5938 126.148 28.0889C126.061 27.6476 125.925 27.2173 125.741 26.8061C125.536 26.4588 125.259 26.1579 124.928 25.9231C124.602 25.6825 124.114 25.6029 123.551 25.6029C123.095 25.5846 122.644 25.6957 122.251 25.9231C121.915 26.1473 121.614 26.4172 121.355 26.7246C121.103 27.0936 120.911 27.4997 120.787 27.9278C120.688 28.4307 120.633 28.941 120.623 29.4531C120.63 29.9912 120.684 30.5276 120.787 31.0561C120.863 31.5111 121.028 31.9469 121.275 32.3388C121.519 32.661 121.763 32.9812 122.17 33.1423C122.606 33.32 123.076 33.4021 123.547 33.3829C124.028 33.4088 124.506 33.2969 124.924 33.0608C125.28 32.8299 125.584 32.5301 125.818 32.1797C126.063 31.8164 126.229 31.4066 126.306 30.9765C126.232 30.5256 126.206 30.0684 126.229 29.6123Z" fill="white"/>
<path id="Vector_11" d="M155.259 33.4623C155.697 33.4539 156.133 33.3999 156.559 33.3013C156.955 33.2165 157.338 33.0821 157.699 32.9015C157.86 32.82 157.943 32.82 158.023 32.9015L158.187 33.0606L158.592 33.9436C158.649 34.0406 158.678 34.1516 158.675 34.2638C158.675 34.3453 158.592 34.3453 158.511 34.4249C157.974 34.7069 157.404 34.9227 156.813 35.0672C156.221 35.1561 155.624 35.2092 155.025 35.2264C153.398 35.2264 152.178 34.7451 151.365 33.8679C150.553 32.9908 150.145 31.5392 150.145 29.7771C150.116 28.9881 150.226 28.2001 150.47 27.4483C150.699 26.7871 151.031 26.1651 151.454 25.6047C151.876 25.1186 152.405 24.7342 153 24.4811C153.647 24.2254 154.336 24.0899 155.033 24.0813C155.524 24.0949 156.014 24.1482 156.497 24.2404C157.042 24.3323 157.565 24.5224 158.041 24.8013C158.122 24.8828 158.204 24.8828 158.204 24.9623C158.208 25.0746 158.179 25.1856 158.122 25.2826L157.716 26.1655C157.634 26.2451 157.634 26.3266 157.553 26.4062H157.309C156.97 26.2625 156.615 26.1552 156.253 26.086C155.877 26.0154 155.495 25.988 155.113 26.0045C154.633 25.9881 154.158 26.0993 153.736 26.3266C153.336 26.5312 152.997 26.8348 152.752 27.2077C152.514 27.6135 152.323 28.0444 152.182 28.4924C152.084 28.9947 152.03 29.5044 152.02 30.0158C152.025 30.5012 152.079 30.9848 152.182 31.4596C152.244 31.8934 152.412 32.306 152.67 32.6628C152.919 33.0123 153.258 33.2892 153.653 33.4643C154.2 33.3789 154.688 33.4623 155.259 33.4623Z" fill="white"/>
<path id="Vector_12" d="M91.8301 14.1337V9.08803H94.1911C94.5256 9.08753 94.858 9.14129 95.1749 9.24716C95.4058 9.31207 95.6068 9.45405 95.7435 9.64887C95.8816 9.81766 95.9919 10.0069 96.0701 10.2097C96.1312 10.391 96.1585 10.5816 96.1507 10.7725C96.1567 10.9952 96.1164 11.2168 96.0325 11.4237C95.9486 11.6306 95.8228 11.8184 95.6628 11.9757C95.3388 12.2953 94.8509 12.4557 94.199 12.457H92.7351V14.0599H94.3623C95.0354 14.0772 95.7035 13.9404 96.314 13.6602C96.7784 13.449 97.1726 13.1126 97.4513 12.6898C97.6953 12.2881 97.9392 11.9679 98.0219 11.5662C98.1089 11.2247 98.1629 10.8757 98.1832 10.5241C98.188 10.0603 98.1053 9.59962 97.9392 9.16565C97.7919 8.75695 97.5357 8.39495 97.1975 8.11771C96.8851 7.7876 96.4942 7.53948 96.0602 7.39579C95.5922 7.22473 95.0954 7.14307 94.5964 7.15515H90.8581C90.7263 7.14481 90.5937 7.1608 90.4683 7.20214C90.3429 7.24349 90.2272 7.30935 90.1282 7.39579C89.9648 7.55686 89.9648 7.7975 89.9648 8.03814V17.7413C89.9648 17.9024 89.9648 17.982 90.0455 17.982C90.0774 18.0127 90.1158 18.036 90.1581 18.0502C90.2003 18.0643 90.2452 18.0688 90.2895 18.0635H91.5094C91.6727 18.0635 91.7533 18.0635 91.834 17.982C91.9166 17.982 91.9166 17.8228 91.9166 17.7413L91.834 14.1337" fill="white"/>
<path id="Vector_13" d="M80.7695 30.8968V25.8512H83.1306C83.4651 25.8507 83.7975 25.9044 84.1143 26.0103C84.3453 26.0752 84.5463 26.2172 84.6829 26.412C84.8164 26.5823 84.922 26.7722 84.9958 26.9748C85.0569 27.156 85.0842 27.3467 85.0764 27.5376C85.0824 27.7603 85.0421 27.9819 84.9582 28.1888C84.8743 28.3957 84.7485 28.5835 84.5885 28.7408C84.2645 29.0603 83.7766 29.2208 83.1247 29.222H81.6608V30.825H83.288C83.9611 30.8423 84.6292 30.7054 85.2397 30.4252C85.704 30.2141 86.0983 29.8777 86.377 29.4549C86.6209 29.0532 86.8649 28.733 86.9475 28.3313C87.0346 27.9897 87.0886 27.6408 87.1089 27.2892C87.1137 26.8253 87.0309 26.3647 86.8649 25.9307C86.7194 25.5252 86.4667 25.1655 86.133 24.8886C85.8215 24.5575 85.4304 24.3092 84.9958 24.1667C84.5277 23.9956 84.0309 23.914 83.5319 23.926H79.7937C79.6615 23.9154 79.5286 23.9313 79.4028 23.9726C79.277 24.014 79.161 24.08 79.0617 24.1667C78.8984 24.3258 78.8984 24.5665 78.8984 24.8071V34.5103C78.8984 34.6714 78.8984 34.7509 78.9791 34.7509C79.011 34.7817 79.0494 34.805 79.0917 34.8191C79.1339 34.8332 79.1788 34.8378 79.2231 34.8324H80.4429C80.6062 34.8324 80.6869 34.8324 80.7695 34.7509C80.8502 34.7509 80.8502 34.5918 80.8502 34.5103L80.7695 30.9026" fill="white"/>
<path id="Vector_14" d="M142.49 30.4155V25.8434H144.851C145.183 25.8437 145.512 25.8975 145.825 26.0025C146.056 26.0681 146.258 26.2099 146.396 26.4042C146.534 26.5762 146.643 26.7688 146.718 26.9748C146.78 27.156 146.807 27.3467 146.799 27.5376C146.805 27.7604 146.765 27.9821 146.682 28.189C146.598 28.396 146.472 28.5838 146.311 28.7408C145.986 29.0603 145.499 29.2207 144.849 29.222H143.385V30.825H145.007C145.68 30.8423 146.348 30.7054 146.958 30.4252C147.423 30.2141 147.818 29.8778 148.098 29.4549C148.342 29.0532 148.586 28.733 148.666 28.3313C148.754 27.9898 148.809 27.6408 148.83 27.2892C148.833 26.8254 148.751 26.3649 148.586 25.9307C148.439 25.526 148.186 25.1665 147.854 24.8886C147.541 24.5578 147.149 24.3096 146.715 24.1667C146.246 23.9956 145.75 23.914 145.251 23.926H141.512C141.38 23.9154 141.247 23.9313 141.122 23.9726C140.996 24.014 140.88 24.08 140.78 24.1667C140.617 24.3258 140.617 24.5665 140.617 24.8071V34.5103C140.617 34.6713 140.617 34.7509 140.7 34.7509C140.732 34.7819 140.77 34.8054 140.812 34.8195C140.855 34.8336 140.9 34.8381 140.944 34.8324H142.164C142.325 34.8324 142.408 34.8324 142.488 34.7509C142.569 34.7509 142.569 34.5918 142.569 34.5103V30.8968" fill="white"/>
<path id="Vector_15" d="M130.533 14.1336V9.08793H132.894C133.229 9.08742 133.561 9.14118 133.878 9.24706C134.109 9.31196 134.31 9.45395 134.447 9.64877C134.584 9.81519 134.694 10.0018 134.773 10.2018C134.834 10.3831 134.862 10.5738 134.854 10.7646C134.86 10.9874 134.819 11.209 134.736 11.4159C134.652 11.6227 134.526 11.8106 134.366 11.9678C134.041 12.2874 133.553 12.4478 132.902 12.4491H131.428V14.0521H133.055C133.729 14.0693 134.397 13.9325 135.007 13.6523C135.472 13.4412 135.866 13.1048 136.144 12.682C136.388 12.2803 136.632 11.9601 136.715 11.5584C136.802 11.2168 136.856 10.8679 136.876 10.5162C136.881 10.0524 136.798 9.59176 136.632 9.15779C136.487 8.7523 136.234 8.39253 135.9 8.11567C135.591 7.7876 135.203 7.54026 134.773 7.39569C134.305 7.22463 133.808 7.14296 133.309 7.15505H129.571C129.439 7.14445 129.306 7.1603 129.18 7.20165C129.054 7.243 128.938 7.309 128.839 7.39569C128.676 7.55676 128.676 7.7974 128.676 8.03804V17.7412C128.676 17.9023 128.676 17.9819 128.756 17.9819C128.788 18.0126 128.827 18.0359 128.869 18.05C128.911 18.0642 128.956 18.0687 129 18.0634H130.22C130.384 18.0634 130.464 18.0634 130.545 17.9819C130.628 17.9819 130.628 17.8227 130.628 17.7412L130.545 14.1336" fill="white"/>
<path id="Vector_16" d="M140.293 13.0896V7.71595C140.298 7.67246 140.293 7.62836 140.279 7.58678C140.266 7.5452 140.243 7.50714 140.212 7.47531C140.129 7.47531 140.129 7.39575 139.968 7.39575H138.591C138.547 7.39043 138.502 7.39481 138.46 7.40856C138.418 7.42232 138.379 7.44512 138.347 7.47531C138.266 7.47531 138.266 7.55682 138.266 7.71595V17.5006C138.248 17.7264 138.304 17.9519 138.427 18.143C138.591 18.3041 138.754 18.3836 139.159 18.3836H142.982C143.48 18.3823 143.975 18.301 144.446 18.143C144.88 17.9986 145.272 17.7506 145.585 17.4211C145.9 17.1091 146.173 16.7589 146.398 16.3789C146.59 15.9497 146.7 15.4892 146.723 15.0205V14.3801C146.708 14.1324 146.653 13.8886 146.559 13.6582C146.456 13.4016 146.319 13.1591 146.154 12.9363C145.97 12.6638 145.718 12.4426 145.422 12.2939C145.097 12.1328 144.771 11.9737 144.365 11.8126C143.857 11.7065 143.339 11.6525 142.819 11.6516H141.111V13.2565H142.819C143.47 13.2565 143.877 13.4175 144.196 13.7377C144.364 13.9063 144.494 14.1074 144.578 14.3283C144.662 14.5492 144.698 14.785 144.684 15.0205C144.697 15.2116 144.67 15.4032 144.604 15.5833C144.544 15.7944 144.432 15.9873 144.277 16.1441C144.105 16.3243 143.915 16.4857 143.708 16.6254C143.391 16.7313 143.059 16.785 142.725 16.7845H140.129L140.293 13.0973" fill="white"/>
<path id="Vector_17" d="M149.727 7.47529C149.647 7.47529 149.647 7.39572 149.483 7.39572H148.106C148.062 7.39027 148.017 7.39458 147.975 7.40834C147.933 7.42211 147.894 7.44498 147.862 7.47529C147.78 7.47529 147.78 7.5568 147.78 7.71593V18.0634C147.774 18.1071 147.779 18.1514 147.793 18.193C147.807 18.2347 147.831 18.2726 147.862 18.304C147.943 18.304 148.024 18.3836 148.106 18.3836H149.483C149.528 18.3891 149.572 18.3847 149.615 18.371C149.657 18.3572 149.695 18.3344 149.727 18.304C149.81 18.304 149.81 18.2225 149.81 18.0634V7.63636C149.763 7.59491 149.733 7.53736 149.727 7.47529Z" fill="white"/>
<path id="Vector_18" d="M162.169 30.2545V24.1589H160.298C160.217 24.1589 160.217 24.2385 160.217 24.3996V34.8266C160.212 34.8701 160.216 34.9142 160.23 34.9558C160.244 34.9974 160.267 35.0354 160.298 35.0673H162.169C162.249 35.0673 162.249 34.9857 162.249 34.8266V30.2545" fill="white"/>
<path id="Vector_19" d="M168.834 34.7373L167.85 31.1296C167.758 30.9266 167.703 30.7092 167.687 30.4873C167.606 30.3262 167.526 30.0856 167.443 29.9265C167.351 29.7558 167.21 29.6159 167.038 29.5247C166.829 29.4022 166.611 29.2952 166.386 29.2045V29.123C166.733 28.9425 167.016 28.6632 167.199 28.3215C167.444 27.987 167.61 27.6034 167.687 27.1979L168.419 24.3918V24.2307C168.419 24.1511 168.338 24.1511 168.175 24.1511H166.711C166.63 24.1511 166.63 24.2307 166.55 24.3103L165.826 26.9747C165.767 27.2598 165.656 27.532 165.499 27.7782L165.011 28.2594C164.838 28.3592 164.643 28.414 164.443 28.4186H163.223V30.0235H164.035C164.483 30.0016 164.929 30.084 165.338 30.2641C165.662 30.4252 165.906 30.825 166.07 31.3878L167.053 34.8363C167.056 34.8776 167.074 34.9165 167.104 34.9457C167.133 34.975 167.173 34.9927 167.215 34.9954H168.761C168.923 34.9954 169.005 34.9954 169.005 34.9158C169.005 34.8363 168.834 34.8266 168.834 34.7373Z" fill="white"/>
<path id="Vector_20" d="M136.229 30.0139V34.8267C136.223 34.8701 136.228 34.9142 136.242 34.9558C136.256 34.9974 136.279 35.0355 136.309 35.0673C136.39 35.1469 136.472 35.0673 136.553 35.0673H138.178C138.261 35.0673 138.261 34.9858 138.261 34.8267V25.0342C138.279 24.8089 138.222 24.5839 138.098 24.3938C137.936 24.2327 137.773 24.1531 137.366 24.1531H133.627C133.128 24.1411 132.632 24.2227 132.164 24.3938C131.774 24.5396 131.415 24.7569 131.107 25.0342C130.773 25.3118 130.521 25.6722 130.375 26.0783C130.208 26.4856 130.125 26.9217 130.131 27.361C130.119 27.922 130.259 28.4759 130.536 28.9659C130.852 29.4366 131.307 29.8003 131.839 30.0081C131.455 30.1233 131.113 30.3465 130.855 30.6504C130.611 30.891 130.529 31.2112 130.367 31.6207L129.555 34.6675V34.9082C129.555 34.9877 129.635 34.9877 129.799 34.9877H131.43C131.51 34.9877 131.593 34.9082 131.593 34.7471L132.414 31.8594C132.577 31.2966 132.821 30.8891 133.145 30.7358C133.52 30.5349 133.939 30.4251 134.365 30.4156H135.261V28.8107H133.883C133.232 28.8107 132.744 28.6496 132.506 28.3294C132.241 28.0134 132.098 27.6156 132.101 27.2058C132.088 27.0413 132.116 26.8762 132.181 26.7245L132.425 26.2432C132.589 26.0841 132.75 26.0026 132.913 25.8434C133.199 25.7358 133.503 25.6812 133.808 25.6824H136.248V30.0139" fill="white"/>
<path id="Vector_21" d="M72.9657 41.8033C73.0464 41.8033 73.0464 41.8848 72.9657 41.9644L72.8024 42.205C72.8024 42.2846 72.7217 42.2846 72.6411 42.2846C72.2639 42.0973 71.8424 42.0142 71.4212 42.0439C69.7941 42.0439 69.2255 43.5693 69.2255 45.1722C69.2255 46.2163 69.6308 46.9382 70.77 46.9382C71.2722 46.9082 71.7663 46.7995 72.2338 46.6161C72.3145 46.5365 72.3971 46.6161 72.3971 46.6976L72.5584 47.0178C72.6411 47.0973 72.5584 47.1788 72.4778 47.1788C71.8946 47.4554 71.2536 47.5924 70.6067 47.5786C69.2294 47.5786 68.5742 46.8567 68.5742 45.2499C68.5742 42.9211 69.7941 41.5626 71.4212 41.5626C71.8265 41.4035 72.4069 41.4831 72.9657 41.8033Z" fill="white"/>
<path id="Vector_22" d="M73.207 45.735C73.207 43.8098 74.1908 42.8473 75.4028 42.8473C76.4593 42.8473 76.78 43.4877 76.78 43.969C76.78 44.9393 76.1308 45.3274 74.6669 45.3274C74.3664 45.337 74.0657 45.3103 73.7717 45.2479V45.6476C73.7717 46.4511 74.0983 46.8508 74.9109 46.8508C75.2547 46.8587 75.5944 46.7756 75.8947 46.6102H76.056L76.2193 46.9323C76.2193 47.0119 76.2193 47.0119 76.1386 47.0915C75.7409 47.3103 75.2915 47.4214 74.8361 47.4136C73.7815 47.4194 73.207 46.9381 73.207 45.735ZM73.9389 44.852C74.1829 44.852 74.5076 44.9315 74.7515 44.9315C75.8907 44.9315 76.3787 44.6909 76.3787 44.0505C76.3787 43.7283 76.1347 43.3286 75.4835 43.3286C74.5902 43.4081 74.1023 43.8894 73.9389 44.852Z" fill="white"/>
<path id="Vector_23" d="M77.925 47.2583L77.681 48.9428C77.6813 48.9533 77.6794 48.9638 77.6754 48.9735C77.6715 48.9833 77.6655 48.9922 77.658 48.9996C77.6504 49.0071 77.6414 49.0129 77.6315 49.0168C77.6216 49.0207 77.611 49.0226 77.6003 49.0223H77.1931C77.1124 49.0223 77.0298 49.0223 77.1124 48.9428L77.925 43.3285C77.925 43.247 78.0057 43.247 78.0057 43.1674C78.5205 42.9533 79.074 42.8443 79.6328 42.8472C80.772 42.8472 81.2599 43.5691 81.2599 44.6113C81.2599 46.2162 80.4454 47.3379 78.9815 47.3379C78.6306 47.4326 78.2573 47.4045 77.925 47.2583ZM78.9815 46.9381C79.8768 46.9381 80.6087 46.2957 80.6087 44.6908C80.6087 43.7205 80.1207 43.4081 79.4695 43.4081C79.1122 43.4218 78.7577 43.4758 78.4129 43.5691L77.925 46.6975C78.2496 46.8678 78.614 46.9508 78.9815 46.9381Z" fill="white"/>
<path id="Vector_24" d="M85.4041 45.8941C85.4041 46.9382 84.5915 47.4194 83.4523 47.4194C82.9271 47.4301 82.4041 47.3486 81.9078 47.1788C81.8271 47.0973 81.8271 47.0973 81.8271 47.0177L82.2423 44.2911C82.4036 43.4081 82.9722 42.8473 83.9481 42.8473C85.0066 42.8473 85.3254 43.3286 85.3254 43.8894C85.3289 44.1081 85.2591 44.3219 85.1267 44.4974C84.9944 44.6729 84.8069 44.8003 84.5935 44.8597C85.2427 45.0926 85.4041 45.4109 85.4041 45.8941ZM84.8355 45.8941C84.8355 45.4943 84.5108 45.1722 83.7789 45.1722H83.6195C83.5389 45.1722 83.4562 45.1722 83.4562 45.0926L83.5389 44.852C83.5389 44.6909 83.6195 44.6909 83.7828 44.6909C84.5148 44.6909 84.7666 44.2911 84.7666 43.969C84.7666 43.6468 84.5226 43.3286 83.952 43.3286C83.2201 43.3286 82.9683 43.8894 82.8955 44.2989L82.5591 46.7693C82.9053 46.8559 83.2591 46.9098 83.6156 46.9304C84.3475 46.9382 84.8355 46.5364 84.8355 45.8941Z" fill="white"/>
<path id="Vector_25" d="M86.7879 42.9269H87.1952C87.2759 42.9269 87.2758 42.9269 87.2758 43.0064L86.9512 45.2537C86.7879 46.3754 86.8686 46.7771 88.0884 46.7771C88.3888 46.7806 88.6888 46.754 88.9837 46.6975L89.5523 42.9269C89.5523 42.8473 89.5523 42.8473 89.7156 42.8473H90.1229C90.2035 42.8473 90.2035 42.8473 90.2035 42.9269L89.6349 46.6975C89.5523 47.0177 89.4716 47.1788 89.0643 47.2584C88.6892 47.3244 88.308 47.3511 87.9271 47.3379C86.4633 47.3379 86.1367 46.7771 86.3 45.3332L86.6246 43.0045C86.7072 43.0064 86.7072 42.9269 86.7879 42.9269Z" fill="white"/>
<path id="Vector_26" d="M91.2606 45.6535C91.2606 46.3754 91.5852 46.8567 92.3998 46.8567C92.7676 46.8725 93.1328 46.7893 93.4563 46.616C93.537 46.5365 93.537 46.616 93.6196 46.6975L93.781 47.0177C93.781 47.0973 93.781 47.0973 93.7003 47.1788C93.2754 47.3971 92.802 47.5071 92.323 47.499C91.2665 47.499 90.6172 46.9382 90.6172 45.735C90.6172 44.0505 91.4298 42.9269 92.7303 42.9269C93.1376 42.9269 93.7141 43.0064 94.0308 43.2471C94.1135 43.3286 94.1135 43.3286 94.0308 43.4082L93.8695 43.7284C93.8695 43.8099 93.7869 43.8099 93.7062 43.8099C93.4059 43.6445 93.0662 43.5614 92.7224 43.5692C91.6678 43.4082 91.2606 44.6114 91.2606 45.6535Z" fill="white"/>
<path id="Vector_27" d="M94.9176 47.3379H94.593C94.5104 47.3379 94.4297 47.3379 94.4297 47.1788L94.9983 43.0821C95.0011 43.0403 95.0192 43.0009 95.0492 42.9712C95.0793 42.9416 95.1192 42.9238 95.1616 42.921H95.4862C95.5689 42.921 95.5689 42.921 95.5689 43.0821L95.3249 44.6851H97.6013L97.8453 43.0821C97.8477 43.0401 97.8656 43.0005 97.8957 42.9708C97.9259 42.9411 97.9661 42.9233 98.0086 42.921H98.3332C98.4139 42.921 98.4946 42.921 98.4139 43.0821L97.8453 47.173C97.8425 47.2146 97.8243 47.2538 97.7942 47.2831C97.7641 47.3124 97.7242 47.3298 97.682 47.3321H97.3574C97.2767 47.3321 97.1941 47.3321 97.2767 47.173L97.5207 45.2479H95.2423L94.9983 47.173C95.0809 47.3379 94.9983 47.3379 94.9176 47.3379Z" fill="white"/>
<path id="Vector_28" d="M102.973 43.0822C103.134 43.1617 103.134 43.2413 103.134 43.3228C102.973 44.6056 102.809 45.8088 102.646 47.01C102.643 47.0515 102.626 47.0907 102.596 47.1203C102.566 47.1499 102.527 47.1679 102.485 47.1711C101.957 47.3287 101.409 47.4098 100.858 47.4117C99.6377 47.4117 99.2305 46.6898 99.2305 45.8068C99.2305 44.1224 99.9624 42.8396 101.592 42.8396C102.06 42.8679 102.523 42.9493 102.973 43.0822ZM101.989 46.7694C102.15 45.6458 102.314 44.6036 102.477 43.5615C102.156 43.4743 101.826 43.4203 101.493 43.4004C100.598 43.4004 99.7853 44.0428 99.7853 45.7292C99.7853 46.5307 100.191 46.8509 101.005 46.8509C101.265 46.9382 101.67 46.8567 101.997 46.7694H101.989Z" fill="white"/>
<path id="Vector_29" d="M107.523 43.2471C107.359 44.6055 107.115 45.8941 106.954 47.2584C106.954 47.338 106.871 47.338 106.791 47.338H106.466C106.385 47.338 106.385 47.338 106.385 47.2584C106.466 46.6976 106.547 46.1348 106.627 45.4944H105.41C104.922 45.4944 104.678 45.5739 104.426 46.1348L104.018 47.2584C104.018 47.338 103.938 47.338 103.855 47.338H103.45C103.439 47.3385 103.428 47.3368 103.418 47.333C103.408 47.3293 103.399 47.3235 103.391 47.316C103.383 47.3085 103.377 47.2995 103.373 47.2896C103.369 47.2797 103.367 47.2691 103.367 47.2584L103.855 46.0552C104.018 45.735 104.099 45.4944 104.587 45.3333C104.387 45.2624 104.216 45.1296 104.099 44.9547C103.982 44.7798 103.925 44.5722 103.938 44.363C103.938 43.5615 104.506 43.0045 105.482 43.0045H107.271C107.305 42.9986 107.34 43.0007 107.372 43.0107C107.405 43.0207 107.435 43.0382 107.46 43.062C107.485 43.0857 107.503 43.1149 107.514 43.1471C107.525 43.1793 107.528 43.2135 107.523 43.2471ZM104.514 44.3707C104.514 44.7724 104.758 45.0131 105.327 45.0131H106.627C106.71 44.5318 106.791 43.969 106.871 43.4877H105.494C104.839 43.4877 104.514 43.8895 104.514 44.3707Z" fill="white"/>
<path id="Vector_30" d="M110.695 47.338H110.379C110.296 47.338 110.215 47.338 110.296 47.2584L110.867 43.088C110.867 43.0065 110.947 43.0065 111.028 43.0065H111.355C111.435 43.0065 111.435 43.0065 111.435 43.088L111.191 44.7725H112.004C112.33 44.7725 112.655 44.691 112.899 44.1301L113.387 43.088C113.387 43.0065 113.468 43.0065 113.55 43.0065H113.956C113.967 43.0062 113.977 43.0082 113.988 43.0122C113.998 43.0162 114.007 43.0222 114.015 43.0298C114.022 43.0374 114.028 43.0465 114.033 43.0565C114.037 43.0665 114.039 43.0772 114.038 43.088L113.55 44.2097C113.387 44.5318 113.224 44.852 112.899 45.0131C113.306 45.1722 113.387 45.4129 113.468 45.8146L113.712 47.2584C113.712 47.338 113.712 47.4195 113.631 47.4195H113.224C113.143 47.4195 113.143 47.4195 113.143 47.338L112.98 45.9795C112.967 45.7993 112.883 45.6312 112.747 45.5112C112.61 45.3911 112.431 45.3286 112.248 45.3372H111.264L110.939 47.3419L110.695 47.338Z" fill="white"/>
<path id="Vector_31" d="M118.256 44.6113C118.256 46.3754 117.361 47.4194 116.061 47.4194C115.002 47.4194 114.434 46.8567 114.434 45.735C114.434 43.8894 115.417 42.8473 116.629 42.8473C117.686 42.8473 118.256 43.4877 118.256 44.6113ZM115.002 45.6535C115.002 46.3754 115.329 46.8567 116.061 46.8567C117.281 46.8567 117.605 45.5739 117.605 44.5279C117.605 43.806 117.361 43.3247 116.549 43.3247C115.492 43.4081 115.002 44.5318 115.002 45.6535Z" fill="white"/>
<path id="Vector_32" d="M122.08 44.852C122.404 44.2911 122.812 43.7283 123.136 43.1675C123.219 43.0064 123.3 42.9269 123.463 42.9269H123.707C123.951 42.9269 123.951 43.0879 123.951 43.1675L123.38 47.1788C123.38 47.2583 123.38 47.2583 123.219 47.2583H122.892C122.812 47.2583 122.812 47.2583 122.812 47.1788L123.3 43.8098L122.578 45.0926L121.684 46.5364C121.602 46.6975 121.521 46.7771 121.358 46.7771H121.114C121.081 46.7816 121.047 46.7785 121.015 46.768C120.984 46.7575 120.955 46.7399 120.931 46.7165C120.907 46.6932 120.89 46.6648 120.879 46.6336C120.868 46.6023 120.865 46.5691 120.87 46.5364L120.464 45.2537L119.976 43.8098L119.489 47.0973C119.489 47.1788 119.489 47.1788 119.325 47.1788H119.001C118.918 47.1788 118.918 47.1788 118.918 47.0973L119.489 43.0879C119.489 42.9269 119.569 42.8473 119.813 42.8473H120.057C120.22 42.8473 120.301 42.8473 120.382 43.0879L120.952 44.7724C121.124 45.2138 121.26 45.668 121.358 46.1308C121.633 45.7243 121.874 45.2966 122.08 44.852Z" fill="white"/>
<path id="Vector_33" d="M127.854 47.338H127.447C127.366 47.338 127.366 47.338 127.366 47.2584L127.693 45.0228C127.856 43.9787 127.693 43.4179 126.473 43.4179C126.173 43.4143 125.873 43.441 125.578 43.4974L125.009 47.2681C125.009 47.2786 125.008 47.2891 125.004 47.2989C125 47.3086 124.994 47.3175 124.986 47.325C124.979 47.3324 124.97 47.3383 124.96 47.3422C124.95 47.3461 124.939 47.3479 124.928 47.3477H124.521C124.441 47.3477 124.358 47.3477 124.441 47.2681L124.928 43.5809C124.949 43.4517 125.005 43.3306 125.091 43.2312C125.178 43.1318 125.29 43.058 125.416 43.0181C125.764 42.9521 126.119 42.9254 126.473 42.9385C127.85 42.9385 128.344 43.4994 128.181 45.0247L127.856 47.27C127.935 47.338 127.935 47.338 127.854 47.338Z" fill="white"/>
<path id="Vector_34" d="M132.894 43.0821C133.057 43.1616 133.057 43.2412 133.057 43.3227C132.894 44.6055 132.73 45.8087 132.569 47.0099C132.566 47.0516 132.548 47.0908 132.518 47.1203C132.488 47.1499 132.448 47.1678 132.406 47.171C131.878 47.3286 131.33 47.4097 130.778 47.4116C129.561 47.4116 129.153 46.6897 129.153 45.8067C129.153 44.1222 129.885 42.8395 131.514 42.8395C131.983 42.855 132.448 42.9367 132.894 43.0821ZM131.998 46.7693C132.162 45.6456 132.325 44.6035 132.486 43.5614C132.165 43.474 131.835 43.42 131.503 43.4003C130.609 43.4003 129.797 44.0427 129.797 45.7291C129.797 46.5306 130.202 46.8508 131.015 46.8508C131.266 46.9381 131.674 46.8566 131.998 46.7693Z" fill="white"/>
<path id="Vector_35" d="M134.031 47.3379H133.704C133.624 47.3379 133.543 47.3379 133.543 47.1788L134.112 43.0821C134.114 43.0401 134.132 43.0005 134.162 42.9708C134.192 42.9411 134.232 42.9233 134.275 42.921H134.6C134.68 42.921 134.68 42.921 134.68 43.0821L134.436 44.6851H136.715L136.959 43.0821C136.961 43.0404 136.979 43.0011 137.008 42.9714C137.038 42.9417 137.078 42.9238 137.12 42.921H137.447C137.527 42.921 137.608 42.921 137.527 43.0821L136.959 47.173C136.955 47.2144 136.937 47.2534 136.907 47.2826C136.877 47.3118 136.837 47.3294 136.795 47.3321H136.471C136.388 47.3321 136.307 47.3321 136.388 47.173L136.632 45.2479H134.356L134.112 47.173C134.192 47.3379 134.192 47.3379 134.031 47.3379Z" fill="white"/>
<path id="Vector_36" d="M138.906 42.9269H139.314C139.394 42.9269 139.394 42.9269 139.394 43.0064L139.07 45.2537C138.906 46.3754 138.989 46.7771 140.209 46.7771C140.509 46.7806 140.808 46.754 141.102 46.6975L141.673 42.9269C141.673 42.8473 141.673 42.8473 141.834 42.8473H142.251C142.332 42.8473 142.332 42.8473 142.332 42.9269L141.763 46.6975C141.683 47.0177 141.6 47.1788 141.195 47.2584C140.819 47.3243 140.437 47.351 140.055 47.3379C138.592 47.3379 138.267 46.7771 138.428 45.3332L138.755 43.0045C138.83 43.0064 138.83 42.9269 138.906 42.9269Z" fill="white"/>
<path id="Vector_37" d="M146.552 43.247C146.391 44.6054 146.147 45.894 145.983 47.2583C145.983 47.3378 145.903 47.3378 145.822 47.3378H145.495C145.415 47.3378 145.415 47.3378 145.415 47.2583C145.495 46.6974 145.578 46.1346 145.659 45.4942H144.439C143.951 45.4942 143.707 45.5738 143.455 46.1346L143.048 47.2583C143.048 47.3378 142.967 47.3378 142.886 47.3378H142.479C142.468 47.3381 142.458 47.3362 142.448 47.3323C142.438 47.3284 142.429 47.3226 142.421 47.3151C142.414 47.3077 142.408 47.2988 142.404 47.289C142.4 47.2793 142.398 47.2688 142.398 47.2583L142.886 46.0551C143.048 45.7349 143.13 45.4942 143.618 45.3332C143.418 45.2626 143.246 45.1299 143.129 44.955C143.011 44.78 142.955 44.5723 142.967 44.3628C142.967 43.5614 143.536 43.0044 144.512 43.0044H146.3C146.552 43.0063 146.635 43.082 146.552 43.247ZM143.626 44.3706C143.626 44.7723 143.87 45.013 144.439 45.013H145.739C145.822 44.5317 145.903 43.9689 145.983 43.4876H144.606C143.87 43.4876 143.626 43.8893 143.626 44.3706Z" fill="white"/>
<path id="Vector_38" d="M26.6836 5.17175V36.678L53.009 29.649L37.1901 21.8127V10.491L26.6836 5.17175Z" fill="#484749"/>
<path id="Vector_39" d="M56.6686 5.35033L46.044 0L26.6836 5.17179L37.1901 10.4911L56.6686 5.35033Z" fill="#D54B27"/>
<path id="Vector_40" d="M10.6289 61L53.0093 50.5496V29.649L31.8191 34.8732V13.9725L10.6289 19.1967V61Z" fill="url(#paint0_linear_124_4463)"/>
<path id="Vector_41" d="M10.6285 19.1967L0 13.9531V55.8883L10.6285 61V19.1967Z" fill="#484749"/>
<path id="Vector_42" d="M10.6285 19.1968L31.8187 13.9726L21.2531 8.73291L0 13.9532L10.6285 19.1968Z" fill="#D54B27"/>
<path id="Vector_43" d="M37.1914 29.6917L56.6698 24.452V5.35034L37.1914 10.4911V29.6917Z" fill="url(#paint1_linear_124_4463)"/>
<g id="Group">
<path id="Vector_44" d="M37.1914 29.6917V17.4657L37.5357 17.5181V29.2357L54.0629 24.8925V25.1526L37.1914 29.6917Z" fill="url(#paint2_radial_124_4463)"/>
</g>
<g id="Group_2">
<path id="Vector_45" d="M56.6698 5.35034L37.1914 10.4911V10.9336L56.658 5.70548L56.6698 5.35034Z" fill="url(#paint3_radial_124_4463)"/>
</g>
<g id="Group_3">
<path id="Vector_46" d="M10.6289 19.1968V61L10.989 60.9088V19.1075L10.6289 19.1968Z" fill="url(#paint4_radial_124_4463)"/>
</g>
<g id="Group_4">
<path id="Vector_47" d="M31.8176 13.9725V34.8732L53.0078 29.649L52.9783 30.1244L31.5166 35.3642V14.0502L31.8176 13.9725Z" fill="url(#paint5_radial_124_4463)"/>
</g>
</g>
</g>
</g>
<defs>
<linearGradient id="paint0_linear_124_4463" x1="50.2961" y1="54.9471" x2="-2.13418" y2="22.5768" gradientUnits="userSpaceOnUse">
<stop offset="0.01" stop-color="#F47721"/>
<stop offset="0.32" stop-color="#FDB518"/>
<stop offset="0.65" stop-color="#F47721"/>
<stop offset="1" stop-color="#F79020"/>
</linearGradient>
<linearGradient id="paint1_linear_124_4463" x1="5743.01" y1="3120.56" x2="3174.39" y2="1696.61" gradientUnits="userSpaceOnUse">
<stop offset="0.01" stop-color="#F47721"/>
<stop offset="0.32" stop-color="#FDB518"/>
<stop offset="0.65" stop-color="#F47721"/>
<stop offset="1" stop-color="#F79020"/>
</linearGradient>
<radialGradient id="paint2_radial_124_4463" cx="0" cy="0" r="1" gradientUnits="userSpaceOnUse" gradientTransform="translate(39.5937 26.8778) scale(7.40181 7.30067)">
<stop stop-color="white"/>
<stop offset="1" stop-color="white"/>
</radialGradient>
<radialGradient id="paint3_radial_124_4463" cx="0" cy="0" r="1" gradientUnits="userSpaceOnUse" gradientTransform="translate(4837.65 227.115) scale(1030.6 295.408)">
<stop stop-color="white"/>
<stop offset="1" stop-color="white"/>
</radialGradient>
<radialGradient id="paint4_radial_124_4463" cx="0" cy="0" r="1" gradientUnits="userSpaceOnUse" gradientTransform="translate(30.6555 10435.3) scale(27.786 3232.84)">
<stop stop-color="white"/>
<stop offset="1" stop-color="white"/>
</radialGradient>
<radialGradient id="paint5_radial_124_4463" cx="0" cy="0" r="1" gradientUnits="userSpaceOnUse" gradientTransform="translate(32.3587 35.3098) scale(10.7958 10.6483)">
<stop stop-color="white"/>
<stop offset="1" stop-color="white"/>
</radialGradient>
<clipPath id="clip0_124_4463">
<rect width="169" height="61" fill="white"/>
</clipPath>
</defs>
</svg>
