<svg width="295" height="115" viewBox="0 0 295 115" fill="none" xmlns="http://www.w3.org/2000/svg">
<path id="Vector 7" d="M1 146.215V112.398L24.089 105.634V129.903L114.906 105.634V129.903L203.414 105.634V129.903L295 105.634V129.903M47.178 149V78.1828L70.267 71.0215V95.6882L161.469 71.0215V95.6882L250.361 71.0215V95.6882L273.835 89.3226V146.215M92.9712 146.215V43.172L114.906 36.8065V59.8817L203.414 36.8065V59.8817L228.042 54.3118V146.215L250.361 140.645V146.215M137.995 146.215C138.61 138.576 138.251 50.2007 137.995 6.96774L161.469 1V23.2796L183.018 18.5054V140.645" stroke="#7A7A7A" stroke-opacity="0.6"/>
</svg>
