<svg width="40" height="40" viewBox="0 0 40 40" fill="none" xmlns="http://www.w3.org/2000/svg">
<g id="User Interface / Spoon">
<path id="Vector" d="M25.8833 23.55C25.7284 23.3938 25.544 23.2698 25.341 23.1852C25.1379 23.1005 24.92 23.057 24.7 23.057C24.48 23.057 24.2621 23.1005 24.059 23.1852C23.8559 23.2698 23.6716 23.3938 23.5167 23.55C23.2062 23.8623 23.032 24.2847 23.032 24.725C23.032 25.1653 23.2062 25.5877 23.5167 25.9L33.8167 36.2C33.9716 36.3562 34.1559 36.4802 34.359 36.5648C34.5621 36.6494 34.78 36.693 35 36.693C35.22 36.693 35.4379 36.6494 35.641 36.5648C35.8441 36.4802 36.0284 36.3562 36.1833 36.2C36.4937 35.8877 36.668 35.4653 36.668 35.025C36.668 34.5847 36.4937 34.1622 36.1833 33.85L25.8833 23.55ZM27.9333 19.4C29.259 19.3988 30.5299 18.8713 31.4667 17.9333L36.1833 13.2166C36.4937 12.9044 36.668 12.482 36.668 12.0416C36.668 11.6013 36.4937 11.1789 36.1833 10.8666C36.0284 10.7104 35.8441 10.5864 35.641 10.5018C35.4379 10.4172 35.22 10.3736 35 10.3736C34.78 10.3736 34.5621 10.4172 34.359 10.5018C34.1559 10.5864 33.9716 10.7104 33.8167 10.8666L29.1 15.5833C28.7877 15.8937 28.3653 16.068 27.925 16.068C27.4847 16.068 27.0623 15.8937 26.75 15.5833L32.65 9.68331C32.9604 9.37104 33.1346 8.94862 33.1346 8.50831C33.1346 8.068 32.9604 7.64558 32.65 7.33331C32.4951 7.1771 32.3107 7.05311 32.1076 6.96849C31.9045 6.88388 31.6867 6.84032 31.4667 6.84032C31.2466 6.84032 31.0288 6.88388 30.8257 6.96849C30.6226 7.05311 30.4383 7.1771 30.2833 7.33331L24.4 13.2166C24.0896 12.9044 23.9153 12.482 23.9153 12.0416C23.9153 11.6013 24.0896 11.1789 24.4 10.8666L29.1 6.14998C29.2745 6.00057 29.4162 5.8167 29.5162 5.60993C29.6162 5.40316 29.6725 5.17793 29.6813 4.9484C29.6902 4.71887 29.6515 4.48998 29.5677 4.27611C29.4839 4.06223 29.3568 3.86799 29.1944 3.70556C29.032 3.54314 28.8377 3.41604 28.6239 3.33225C28.41 3.24846 28.1811 3.20978 27.9516 3.21865C27.722 3.22752 27.4968 3.28373 27.29 3.38377C27.0833 3.48381 26.8994 3.62551 26.75 3.79998L22.0333 8.51665C21.097 9.45415 20.5711 10.725 20.5711 12.05C20.5711 13.375 21.097 14.6458 22.0333 15.5833L20 17.65L17.4 15.0833C18.1379 13.7516 18.417 12.214 18.194 10.7079C17.9711 9.20175 17.2587 7.81089 16.1667 6.74998C13.7667 4.34998 7.54999 1.66665 4.61666 4.64998C1.68332 7.63331 4.33332 13.7833 6.66666 16.2C7.96971 17.5077 9.72163 18.2704 11.5667 18.3333H11.8C12.9269 18.3173 14.03 18.007 15 17.4333L17.6167 20L3.81666 33.8C3.66235 33.9554 3.54017 34.1396 3.45708 34.3423C3.37399 34.5449 3.33162 34.7619 3.3324 34.9809C3.33317 35.1999 3.37707 35.4166 3.46159 35.6186C3.54611 35.8206 3.66959 36.004 3.82499 36.1583C3.98039 36.3126 4.16466 36.4348 4.36727 36.5179C4.56989 36.601 4.78689 36.6433 5.00588 36.6426C5.22487 36.6418 5.44157 36.5979 5.64359 36.5134C5.84562 36.4289 6.02902 36.3054 6.18332 36.15L21.1833 21.15L24.3833 17.95C24.8505 18.4134 25.4046 18.78 26.0138 19.0288C26.623 19.2777 27.2753 19.4038 27.9333 19.4ZM14.05 14.0666C13.7378 14.377 13.3651 14.62 12.9552 14.7806C12.5452 14.9411 12.1066 15.0158 11.6667 15C10.6923 14.958 9.77225 14.5398 9.09999 13.8333C7.29999 12.0333 6.03332 7.94998 6.98332 6.99998C7.29887 6.76195 7.68873 6.64381 8.08332 6.66665C10.2105 6.83619 12.2239 7.69657 13.8167 9.11665C14.4971 9.74618 14.9029 10.6179 14.9466 11.5439C14.9902 12.4699 14.6682 13.3759 14.05 14.0666Z" fill="#F05922"/>
</g>
</svg>
