<svg width="40" height="40" viewBox="0 0 40 40" fill="none" xmlns="http://www.w3.org/2000/svg">
<g id="Shopping / basket">
<path id="Vector" d="M23.3332 30C23.7752 30 24.1991 29.8244 24.5117 29.5118C24.8242 29.1992 24.9998 28.7753 24.9998 28.3333V25C24.9998 24.5579 24.8242 24.134 24.5117 23.8215C24.1991 23.5089 23.7752 23.3333 23.3332 23.3333C22.8911 23.3333 22.4672 23.5089 22.1546 23.8215C21.8421 24.134 21.6665 24.5579 21.6665 25V28.3333C21.6665 28.7753 21.8421 29.1992 22.1546 29.5118C22.4672 29.8244 22.8911 30 23.3332 30ZM16.6665 30C17.1085 30 17.5324 29.8244 17.845 29.5118C18.1576 29.1992 18.3332 28.7753 18.3332 28.3333V25C18.3332 24.5579 18.1576 24.134 17.845 23.8215C17.5324 23.5089 17.1085 23.3333 16.6665 23.3333C16.2245 23.3333 15.8005 23.5089 15.488 23.8215C15.1754 24.134 14.9998 24.5579 14.9998 25V28.3333C14.9998 28.7753 15.1754 29.1992 15.488 29.5118C15.8005 29.8244 16.2245 30 16.6665 30ZM31.6665 9.99996H29.3665L26.4832 4.24996C26.395 4.03839 26.2643 3.84725 26.0989 3.68851C25.9336 3.52977 25.7374 3.40683 25.5224 3.32737C25.3074 3.24791 25.0783 3.21364 24.8495 3.22671C24.6207 3.23978 24.3971 3.2999 24.1925 3.40331C23.988 3.50673 23.807 3.65121 23.6608 3.82774C23.5147 4.00427 23.4065 4.20905 23.343 4.42929C23.2796 4.64952 23.2622 4.88047 23.2921 5.10771C23.3219 5.33495 23.3983 5.55359 23.5165 5.74996L25.6332 9.99996H14.3665L16.4832 5.74996C16.6449 5.36147 16.6538 4.92617 16.5079 4.53144C16.362 4.13672 16.0721 3.81179 15.6966 3.62191C15.321 3.43202 14.8876 3.39123 14.4832 3.50773C14.0788 3.62423 13.7335 3.88938 13.5165 4.24996L10.6332 9.99996H8.33315C7.15513 10.0179 6.02128 10.4512 5.13157 11.2235C4.24185 11.9958 3.65344 13.0575 3.4701 14.2213C3.28676 15.3851 3.52028 16.5763 4.12946 17.5847C4.73864 18.5931 5.68436 19.3541 6.79982 19.7333L8.03315 32.1666C8.15752 33.4042 8.73872 34.5511 9.66327 35.3832C10.5878 36.2153 11.7893 36.6729 13.0332 36.6666H26.9998C28.2437 36.6729 29.4452 36.2153 30.3697 35.3832C31.2942 34.5511 31.8755 33.4042 31.9998 32.1666L33.2332 19.7333C34.351 19.353 35.2982 18.5892 35.907 17.5774C36.5157 16.5656 36.7468 15.371 36.5591 14.2052C36.3715 13.0394 35.7773 11.9776 34.8818 11.2079C33.9863 10.4382 32.8473 10.0103 31.6665 9.99996ZM28.6498 31.8333C28.6084 32.2458 28.4146 32.6281 28.1064 32.9055C27.7983 33.1828 27.3978 33.3354 26.9832 33.3333H13.0165C12.6019 33.3354 12.2014 33.1828 11.8932 32.9055C11.585 32.6281 11.3913 32.2458 11.3498 31.8333L10.1665 20H29.8332L28.6498 31.8333ZM31.6665 16.6666H8.33315C7.89112 16.6666 7.4672 16.491 7.15464 16.1785C6.84208 15.8659 6.66648 15.442 6.66648 15C6.66648 14.5579 6.84208 14.134 7.15464 13.8215C7.4672 13.5089 7.89112 13.3333 8.33315 13.3333H31.6665C32.1085 13.3333 32.5324 13.5089 32.845 13.8215C33.1576 14.134 33.3332 14.5579 33.3332 15C33.3332 15.442 33.1576 15.8659 32.845 16.1785C32.5324 16.491 32.1085 16.6666 31.6665 16.6666Z" fill="#F05922"/>
</g>
</svg>
