<svg width="40" height="40" viewBox="0 0 40 40" fill="none" xmlns="http://www.w3.org/2000/svg">
<g id="User Interface / Share">
<path id="Vector" d="M29.9998 23.3333C29.0151 23.3398 28.044 23.5644 27.1564 23.9909C26.2689 24.4174 25.4868 25.0352 24.8664 25.8L16.3664 21.8833C16.7661 20.6596 16.7661 19.3404 16.3664 18.1167L24.8664 14.2C25.8691 15.4099 27.267 16.2268 28.8133 16.5064C30.3597 16.786 31.9551 16.5104 33.318 15.7282C34.6809 14.946 35.7237 13.7074 36.2623 12.2312C36.801 10.755 36.8008 9.13596 36.2619 7.65983C35.723 6.18371 34.68 4.94539 33.317 4.16343C31.9539 3.38148 30.3584 3.10614 28.8122 3.38603C27.2659 3.66591 25.8681 4.48302 24.8657 5.69314C23.8632 6.90327 23.3204 8.42862 23.3331 9.99999C23.3381 10.397 23.3771 10.7929 23.4498 11.1833L14.6498 15.2333C13.7116 14.316 12.5235 13.6958 11.2344 13.4507C9.94537 13.2056 8.61263 13.3463 7.40318 13.8552C6.19373 14.3642 5.16137 15.2187 4.43543 16.3118C3.70949 17.4048 3.32227 18.6878 3.32227 20C3.32227 21.3122 3.70949 22.5951 4.43543 23.6882C5.16137 24.7813 6.19373 25.6358 7.40318 26.1448C8.61263 26.6537 9.94537 26.7944 11.2344 26.5493C12.5235 26.3041 13.7116 25.684 14.6498 24.7667L23.4498 28.8167C23.3771 29.207 23.3381 29.6029 23.3331 30C23.3331 31.3185 23.7241 32.6075 24.4566 33.7038C25.1892 34.8001 26.2304 35.6546 27.4485 36.1592C28.6667 36.6638 30.0072 36.7958 31.3004 36.5386C32.5936 36.2813 33.7815 35.6464 34.7138 34.714C35.6462 33.7817 36.2811 32.5938 36.5383 31.3006C36.7956 30.0074 36.6635 28.6669 36.159 27.4488C35.6544 26.2306 34.7999 25.1894 33.7036 24.4569C32.6072 23.7243 31.3183 23.3333 29.9998 23.3333ZM29.9998 6.66665C30.659 6.66665 31.3035 6.86215 31.8517 7.22842C32.3998 7.59469 32.8271 8.11529 33.0794 8.72438C33.3317 9.33346 33.3977 10.0037 33.269 10.6503C33.1404 11.2969 32.823 11.8908 32.3568 12.357C31.8906 12.8232 31.2967 13.1407 30.6501 13.2693C30.0035 13.3979 29.3332 13.3319 28.7242 13.0796C28.1151 12.8273 27.5945 12.4001 27.2282 11.8519C26.8619 11.3037 26.6664 10.6593 26.6664 9.99999C26.6664 9.11593 27.0176 8.26809 27.6427 7.64297C28.2679 7.01784 29.1157 6.66665 29.9998 6.66665ZM9.99976 23.3333C9.34049 23.3333 8.69603 23.1378 8.14786 22.7716C7.5997 22.4053 7.17246 21.8847 6.92016 21.2756C6.66787 20.6665 6.60186 19.9963 6.73048 19.3497C6.8591 18.7031 7.17656 18.1091 7.64274 17.643C8.10891 17.1768 8.70286 16.8593 9.34946 16.7307C9.99606 16.6021 10.6663 16.6681 11.2754 16.9204C11.8845 17.1727 12.4051 17.5999 12.7713 18.1481C13.1376 18.6963 13.3331 19.3407 13.3331 20C13.3331 20.884 12.9819 21.7319 12.3568 22.357C11.7317 22.9821 10.8838 23.3333 9.99976 23.3333ZM29.9998 33.3333C29.3405 33.3333 28.696 33.1378 28.1479 32.7716C27.5997 32.4053 27.1725 31.8847 26.9202 31.2756C26.6679 30.6665 26.6019 29.9963 26.7305 29.3497C26.8591 28.7031 27.1766 28.1091 27.6427 27.643C28.1089 27.1768 28.7029 26.8593 29.3495 26.7307C29.9961 26.6021 30.6663 26.6681 31.2754 26.9204C31.8845 27.1727 32.4051 27.5999 32.7713 28.1481C33.1376 28.6963 33.3331 29.3407 33.3331 30C33.3331 30.884 32.9819 31.7319 32.3568 32.357C31.7317 32.9821 30.8838 33.3333 29.9998 33.3333Z" fill="#F05922"/>
</g>
</svg>
