<svg width="40" height="40" viewBox="0 0 40 40" fill="none" xmlns="http://www.w3.org/2000/svg">
<g id="User Interface / Water Glass">
<path id="Vector" d="M30.1329 11.6667C29.9139 11.6484 29.6934 11.6737 29.4842 11.741C29.275 11.8083 29.0812 11.9163 28.9139 12.0588C28.7466 12.2014 28.6091 12.3755 28.5094 12.5714C28.4097 12.7672 28.3497 12.9809 28.3329 13.2L27.7496 20.7833C26.9789 20.5447 26.2876 20.1012 25.7496 19.5C25.5932 19.3226 25.4008 19.1806 25.1853 19.0833C24.9698 18.986 24.736 18.9357 24.4996 18.9357C24.2631 18.9357 24.0293 18.986 23.8138 19.0833C23.5983 19.1806 23.406 19.3226 23.2496 19.5C22.8359 19.9495 22.3335 20.3083 21.7741 20.5538C21.2147 20.7992 20.6104 20.9259 19.9996 20.9259C19.3887 20.9259 18.7844 20.7992 18.225 20.5538C17.6656 20.3083 17.1632 19.9495 16.7496 19.5C16.5932 19.3226 16.4008 19.1806 16.1853 19.0833C15.9698 18.986 15.736 18.9357 15.4996 18.9357C15.2631 18.9357 15.0293 18.986 14.8138 19.0833C14.5983 19.1806 14.406 19.3226 14.2496 19.5C13.7099 20.0992 13.0192 20.5425 12.2496 20.7833L11.6662 13.2C11.6494 12.9809 11.5894 12.7672 11.4897 12.5714C11.39 12.3755 11.2525 12.2014 11.0852 12.0588C10.9179 11.9163 10.7241 11.8083 10.5149 11.741C10.3057 11.6737 10.0852 11.6484 9.86622 11.6667C9.6471 11.6835 9.43347 11.7435 9.23762 11.8432C9.04178 11.9429 8.86759 12.0804 8.72508 12.2477C8.58257 12.415 8.47455 12.6088 8.40724 12.818C8.33993 13.0272 8.31466 13.2476 8.33289 13.4667L9.76622 32.05C9.86299 33.3085 10.4322 34.4839 11.3596 35.3402C12.287 36.1965 13.504 36.6704 14.7662 36.6667H25.2662C26.5285 36.6704 27.7454 36.1965 28.6728 35.3402C29.6002 34.4839 30.1695 33.3085 30.2662 32.05L31.6662 13.4667C31.6845 13.2476 31.6592 13.0272 31.5919 12.818C31.5246 12.6088 31.4165 12.415 31.274 12.2477C31.1315 12.0804 30.9573 11.9429 30.7615 11.8432C30.5656 11.7435 30.352 11.6835 30.1329 11.6667ZM26.8996 31.8C26.866 32.2185 26.6757 32.6089 26.3667 32.8932C26.0577 33.1775 25.6528 33.3347 25.2329 33.3333H14.7496C14.3297 33.3347 13.9248 33.1775 13.6158 32.8932C13.3068 32.6089 13.1165 32.2185 13.0829 31.8L12.4996 24.1667C13.5801 23.9408 14.6018 23.4924 15.4996 22.85C16.814 23.7844 18.3868 24.2865 19.9996 24.2865C21.6123 24.2865 23.1851 23.7844 24.4996 22.85C25.3973 23.4924 26.419 23.9408 27.4996 24.1667L26.8996 31.8ZM19.9996 16.6667C21.4348 16.6623 22.81 16.0902 23.8249 15.0753C24.8397 14.0604 25.4118 12.6852 25.4162 11.25C25.4162 6.66666 21.1162 3.73332 20.9329 3.61666C20.6573 3.43036 20.3322 3.33081 19.9996 3.33081C19.6669 3.33081 19.3418 3.43036 19.0662 3.61666C18.8829 3.74999 14.5829 6.66666 14.5829 11.25C14.5873 12.6852 15.1594 14.0604 16.1743 15.0753C17.1891 16.0902 18.5643 16.6623 19.9996 16.6667ZM19.9996 7.16666C21.2056 8.19953 21.9545 9.66729 22.0829 11.25C22.0829 11.8025 21.8634 12.3324 21.4727 12.7231C21.082 13.1138 20.5521 13.3333 19.9996 13.3333C19.447 13.3333 18.9171 13.1138 18.5264 12.7231C18.1357 12.3324 17.9162 11.8025 17.9162 11.25C18.0534 9.66979 18.8006 8.20514 19.9996 7.16666Z" fill="#F05922"/>
</g>
</svg>
