<svg width="40" height="40" viewBox="0 0 40 40" fill="none" xmlns="http://www.w3.org/2000/svg">
<g id="User Interface / Repair Tool">
<path id="Vector" d="M36.1836 25.9667L28.6502 18.45C28.8079 17.6823 28.8861 16.9004 28.8836 16.1167C28.883 13.9678 28.3407 11.8537 27.3068 9.96982C26.2729 8.08596 24.7808 6.49314 22.9684 5.33858C21.156 4.18402 19.0818 3.50499 16.9375 3.36424C14.7932 3.2235 12.648 3.62559 10.7002 4.53334C10.4535 4.64607 10.238 4.81734 10.0724 5.03227C9.90684 5.2472 9.79626 5.4993 9.75025 5.76668C9.70442 6.03065 9.7229 6.30179 9.80414 6.5571C9.88538 6.81242 10.027 7.04438 10.2169 7.23334L17.4669 14.4667L14.4669 17.4667L7.23358 10.2167C7.04303 10.0297 6.81034 9.8912 6.5551 9.81289C6.29987 9.73458 6.02955 9.71873 5.76691 9.76668C5.50122 9.811 5.25022 9.91906 5.03543 10.0816C4.82063 10.2442 4.64843 10.4564 4.53358 10.7C3.62279 12.6542 3.22105 14.807 3.36573 16.9581C3.51042 19.1093 4.19682 21.1889 5.3611 23.0035C6.52538 24.8181 8.1297 26.3087 10.0248 27.3368C11.9199 28.3648 14.0443 28.8968 16.2002 28.8833C16.984 28.8859 17.7659 28.8077 18.5336 28.65L26.0502 36.1833C26.2052 36.3396 26.3895 36.4635 26.5926 36.5482C26.7957 36.6328 27.0136 36.6763 27.2336 36.6763C27.4536 36.6763 27.6714 36.6328 27.8745 36.5482C28.0776 36.4635 28.262 36.3396 28.4169 36.1833C28.5731 36.0284 28.6971 35.8441 28.7817 35.641C28.8664 35.4379 28.9099 35.22 28.9099 35C28.9099 34.78 28.8664 34.5621 28.7817 34.359C28.6971 34.1559 28.5731 33.9716 28.4169 33.8167L20.2502 25.65C20.0462 25.4473 19.7931 25.3008 19.5156 25.2249C19.2382 25.149 18.9458 25.1461 18.6669 25.2167C17.8622 25.4322 17.0333 25.5442 16.2002 25.55C14.9537 25.561 13.7172 25.3252 12.5621 24.8563C11.4071 24.3874 10.3562 23.6945 9.47006 22.8177C8.58393 21.9408 7.88004 20.8973 7.39894 19.7473C6.91785 18.5972 6.66906 17.3633 6.66691 16.1167C6.66476 15.5584 6.70936 15.0009 6.80025 14.45L13.3336 21C13.4885 21.1562 13.6729 21.2802 13.876 21.3648C14.0791 21.4494 14.2969 21.493 14.5169 21.493C14.7369 21.493 14.9548 21.4494 15.1579 21.3648C15.361 21.2802 15.5453 21.1562 15.7002 21L21.0002 15.65C21.3006 15.3392 21.4686 14.9239 21.4686 14.4917C21.4686 14.0594 21.3006 13.6441 21.0002 13.3333L14.5169 6.80001C15.0679 6.71003 15.6253 6.66543 16.1836 6.66668C18.687 6.67109 21.0864 7.66866 22.855 9.4404C24.6236 11.2121 25.6169 13.6133 25.6169 16.1167C25.6111 16.9497 25.4991 17.7786 25.2836 18.5833C25.213 18.8622 25.2159 19.1546 25.2918 19.4321C25.3677 19.7095 25.5142 19.9626 25.7169 20.1667L33.8836 28.3333C34.1974 28.6472 34.6231 28.8235 35.0669 28.8235C35.5108 28.8235 35.9364 28.6472 36.2502 28.3333C36.5641 28.0195 36.7404 27.5938 36.7404 27.15C36.7404 26.7062 36.5641 26.2805 36.2502 25.9667H36.1836Z" fill="#F05922"/>
</g>
</svg>
